<?xml version="1.0" encoding="UTF-8" standalone="no"?>
<!-- Generator: Adobe Illustrator 18.0.0, SVG Export Plug-In . SVG Version: 6.00 Build 0)  -->

<svg
   version="1.1"
   id="Capa_1"
   x="0px"
   y="0px"
   viewBox="0 0 60.000004 60.000004"
   xml:space="preserve"
   sodipodi:docname="image-svgrepo-com.svg"
   width="60.000004"
   height="60.000004"
   inkscape:version="1.1.2 (0a00cf5339, 2022-02-04, custom)"
   xmlns:inkscape="http://www.inkscape.org/namespaces/inkscape"
   xmlns:sodipodi="http://sodipodi.sourceforge.net/DTD/sodipodi-0.dtd"
   xmlns="http://www.w3.org/2000/svg"
   xmlns:svg="http://www.w3.org/2000/svg"><defs
   id="defs63" /><sodipodi:namedview
   id="namedview61"
   pagecolor="#505050"
   bordercolor="#ffffff"
   borderopacity="1"
   inkscape:pageshadow="0"
   inkscape:pageopacity="0"
   inkscape:pagecheckerboard="1"
   showgrid="false"
   inkscape:zoom="9.7934289"
   inkscape:cx="12.457332"
   inkscape:cy="31.041222"
   inkscape:window-width="1920"
   inkscape:window-height="1017"
   inkscape:window-x="-8"
   inkscape:window-y="-8"
   inkscape:window-maximized="1"
   inkscape:current-layer="g20" />
<g
   id="g28">
	<g
   id="g20"
   transform="matrix(1.0483676,0,0,1.0580166,0.10210927,9.5994327)">
		
		
		
		
		<g
   id="g1147"
   transform="matrix(1.0040673,0,0,1.0043854,-0.09739835,-0.07146532)"><g
     id="g6"
     transform="matrix(1,0,0,1.2832336,0,-13.453595)">
			<rect
   x="1"
   y="4.5"
   style="fill:#ecf0f1"
   width="55"
   height="42"
   id="rect2" />
			<path
   style="fill:#545e73"
   d="M 57,47.5 H 0 V 3.5 H 57 Z M 2,45.5 H 55 V 5.5 H 2 Z"
   id="path4" />
		</g><g
     id="g12"
     transform="matrix(1,0,0,1.3359473,0,-14.61371)">
			<rect
   x="5"
   y="8.5"
   style="fill:#545e73"
   width="47"
   height="34"
   id="rect8" />
			<path
   style="fill:#ecf0f1"
   d="M 53,43.5 H 4 V 7.5 H 53 Z M 6,41.5 H 51 V 9.5 H 6 Z"
   id="path10" />
		</g><circle
     style="fill:#f3d55a"
     cx="14.517902"
     cy="9.0845757"
     r="4.5689998"
     id="circle14" /><polygon
     style="fill:#11a085"
     points="37,41.5 51,41.5 51,32.611 50,31.5 38,20.5 27.5,32 32.983,37.483 "
     id="polygon16"
     transform="matrix(1,0,0,1.5881892,0,-24.409851)" /><polygon
     style="fill:#26b999"
     points="32.983,37.483 22.017,26.517 6,40.5 6,41.5 37,41.5 "
     id="polygon18"
     transform="matrix(1,0,0,1.6012407,0,-24.951487)" /></g>
	</g>
	
</g>
<g
   id="g30">
</g>
<g
   id="g32">
</g>
<g
   id="g34">
</g>
<g
   id="g36">
</g>
<g
   id="g38">
</g>
<g
   id="g40">
</g>
<g
   id="g42">
</g>
<g
   id="g44">
</g>
<g
   id="g46">
</g>
<g
   id="g48">
</g>
<g
   id="g50">
</g>
<g
   id="g52">
</g>
<g
   id="g54">
</g>
<g
   id="g56">
</g>
<g
   id="g58">
</g>
</svg>
